<svg width="64" height="64" viewBox="0 0 64 64" fill="none" xmlns="http://www.w3.org/2000/svg">
<rect width="2.94048" height="22.715" transform="matrix(0.866025 -0.5 2.20305e-08 1 54.0767 21.6604)" fill="#2E4E85"/>
<rect width="2.91228" height="32.379" transform="matrix(0.866025 -0.5 0.866025 0.5 26.061 5.45605)" fill="#5779B5"/>
<rect width="32.3753" height="22.7432" transform="matrix(0.866025 0.5 -2.20305e-08 1 26.064 5.45801)" fill="white"/>
<rect width="27.4745" height="17.0904" rx="1.01857" transform="matrix(0.866025 0.5 -2.20305e-08 1 28.1216 9.76489)" fill="#CEDAEF"/>
<rect width="32.3753" height="3.3561" transform="matrix(0.866025 0.5 -2.20305e-08 1 6 39.7319)" fill="#96AFDB"/>
<rect width="32.3948" height="23.1505" transform="matrix(0.866025 0.5 -0.866025 0.5 26.0488 28.1565)" fill="white"/>
<rect width="27.7385" height="17.1958" rx="1.01857" transform="matrix(0.866025 0.5 -0.866025 0.5 26.0366 30.4717)" fill="#CEDAEF"/>
<rect width="26.079" height="3.36348" transform="matrix(0.866025 -0.5 2.20305e-08 1 34.0376 55.9021)" fill="#2E4E85"/>
<rect width="1.8319" height="2.25199" rx="0.509285" transform="matrix(0.866025 0.5 -0.866025 0.5 25.8774 31.6667)" fill="#5779B5"/>
<rect width="1.8319" height="2.25199" rx="0.509285" transform="matrix(0.866025 0.5 -0.866025 0.5 27.9268 32.8496)" fill="#5779B5"/>
<rect width="1.8319" height="2.25199" rx="0.509285" transform="matrix(0.866025 0.5 -0.866025 0.5 29.9761 34.0327)" fill="#5779B5"/>
<rect width="1.8319" height="2.25199" rx="0.509285" transform="matrix(0.866025 0.5 -0.866025 0.5 32.0254 35.2158)" fill="#5779B5"/>
<rect width="1.8319" height="2.25199" rx="0.509285" transform="matrix(0.866025 0.5 -0.866025 0.5 34.0742 36.3989)" fill="#5779B5"/>
<rect width="1.8319" height="2.25199" rx="0.509285" transform="matrix(0.866025 0.5 -0.866025 0.5 36.1235 37.582)" fill="#5779B5"/>
<rect width="1.8319" height="2.25199" rx="0.509285" transform="matrix(0.866025 0.5 -0.866025 0.5 38.1729 38.7651)" fill="#5779B5"/>
<rect width="1.8319" height="2.25199" rx="0.509285" transform="matrix(0.866025 0.5 -0.866025 0.5 40.2222 39.9482)" fill="#5779B5"/>
<rect width="1.8319" height="2.25199" rx="0.509285" transform="matrix(0.866025 0.5 -0.866025 0.5 42.2715 41.1313)" fill="#5779B5"/>
<rect width="4.19811" height="2.25199" rx="0.509285" transform="matrix(0.866025 0.5 -0.866025 0.5 44.3203 42.3145)" fill="#5779B5"/>
<rect width="1.8319" height="2.25199" rx="0.509285" transform="matrix(0.866025 0.5 -0.866025 0.5 23.3589 33.1208)" fill="#5779B5"/>
<rect width="1.8319" height="2.25199" rx="0.509285" transform="matrix(0.866025 0.5 -0.866025 0.5 25.4077 34.304)" fill="#5779B5"/>
<rect width="1.8319" height="2.25199" rx="0.509285" transform="matrix(0.866025 0.5 -0.866025 0.5 27.457 35.4871)" fill="#5779B5"/>
<rect width="1.8319" height="2.25199" rx="0.509285" transform="matrix(0.866025 0.5 -0.866025 0.5 29.5063 36.6702)" fill="#5779B5"/>
<rect width="1.8319" height="2.25199" rx="0.509285" transform="matrix(0.866025 0.5 -0.866025 0.5 31.5552 37.8533)" fill="#5779B5"/>
<rect width="1.8319" height="2.25199" rx="0.509285" transform="matrix(0.866025 0.5 -0.866025 0.5 33.6045 39.0364)" fill="#5779B5"/>
<rect width="1.8319" height="2.25199" rx="0.509285" transform="matrix(0.866025 0.5 -0.866025 0.5 35.6538 40.2195)" fill="#5779B5"/>
<rect width="1.8319" height="2.25199" rx="0.509285" transform="matrix(0.866025 0.5 -0.866025 0.5 37.7031 41.4026)" fill="#5779B5"/>
<rect width="1.8319" height="2.25199" rx="0.509285" transform="matrix(0.866025 0.5 -0.866025 0.5 39.7524 42.5857)" fill="#5779B5"/>
<rect width="1.8319" height="2.25199" rx="0.509285" transform="matrix(0.866025 0.5 -0.866025 0.5 41.8013 43.7688)" fill="#5779B5"/>
<rect width="1.8319" height="2.25199" rx="0.509285" transform="matrix(0.866025 0.5 -0.866025 0.5 43.8506 44.9519)" fill="#5779B5"/>
<rect width="2.36621" height="2.25199" rx="0.509285" transform="matrix(0.866025 0.5 -0.866025 0.5 24.4756 36.6743)" fill="#5779B5"/>
<rect width="2.36621" height="2.25199" rx="0.509285" transform="matrix(0.866025 0.5 -0.866025 0.5 37.2329 44.0403)" fill="#5779B5"/>
<rect width="3.6638" height="2.25199" rx="0.509285" transform="matrix(0.866025 0.5 -0.866025 0.5 20.8398 34.5754)" fill="#5779B5"/>
<rect width="3.6638" height="2.25199" rx="0.509285" transform="matrix(0.866025 0.5 -0.866025 0.5 39.7451 45.4905)" fill="#5779B5"/>
<rect width="1.8319" height="2.25199" rx="0.509285" transform="matrix(0.866025 0.5 -0.866025 0.5 26.9873 38.1248)" fill="#5779B5"/>
<rect width="1.8319" height="2.25199" rx="0.509285" transform="matrix(0.866025 0.5 -0.866025 0.5 29.0361 39.3079)" fill="#5779B5"/>
<rect width="1.8319" height="2.25199" rx="0.509285" transform="matrix(0.866025 0.5 -0.866025 0.5 31.0854 40.491)" fill="#5779B5"/>
<rect width="1.8319" height="2.25199" rx="0.509285" transform="matrix(0.866025 0.5 -0.866025 0.5 33.1348 41.6741)" fill="#5779B5"/>
<rect width="1.8319" height="2.25199" rx="0.509285" transform="matrix(0.866025 0.5 -0.866025 0.5 35.1841 42.8572)" fill="#5779B5"/>
<rect width="7.63293" height="3.37798" rx="0.509285" transform="matrix(0.866025 0.5 -0.866025 0.5 23.5352 41.9495)" fill="#5779B5"/>
<rect width="4.19811" height="2.25199" rx="0.509285" transform="matrix(0.866025 0.5 -0.866025 0.5 18.3203 36.0298)" fill="#5779B5"/>
<rect width="1.8319" height="2.25199" rx="0.509285" transform="matrix(0.866025 0.5 -0.866025 0.5 22.4189 38.396)" fill="#5779B5"/>
<rect width="1.8319" height="2.25199" rx="0.509285" transform="matrix(0.866025 0.5 -0.866025 0.5 24.4683 39.5791)" fill="#5779B5"/>
<rect width="1.8319" height="2.25199" rx="0.509285" transform="matrix(0.866025 0.5 -0.866025 0.5 26.5171 40.7622)" fill="#5779B5"/>
<rect width="1.8319" height="2.25199" rx="0.509285" transform="matrix(0.866025 0.5 -0.866025 0.5 28.5664 41.9453)" fill="#5779B5"/>
<rect width="1.8319" height="2.25199" rx="0.509285" transform="matrix(0.866025 0.5 -0.866025 0.5 30.6157 43.1284)" fill="#5779B5"/>
<rect width="1.8319" height="2.25199" rx="0.509285" transform="matrix(0.866025 0.5 -0.866025 0.5 32.665 44.3115)" fill="#5779B5"/>
<rect width="1.8319" height="2.25199" rx="0.509285" transform="matrix(0.866025 0.5 -0.866025 0.5 34.7139 45.4946)" fill="#5779B5"/>
<rect width="4.19811" height="2.25199" rx="0.509285" transform="matrix(0.866025 0.5 -0.866025 0.5 36.7632 46.6777)" fill="#5779B5"/>
<path d="M36.3244 25.5989L36.4261 24.577C36.4261 24.489 36.4063 24.4043 36.3668 24.3228C36.3273 24.2413 36.2638 24.1753 36.1763 24.1248C36.0887 24.0743 36.0139 24.0718 35.9518 24.1175C35.8926 24.1615 35.8488 24.2405 35.8206 24.3546C35.8008 24.529 35.7712 24.784 35.7317 25.1197C35.6922 25.4522 35.6667 25.669 35.6555 25.77L35.0923 25.4449C35.2956 23.5642 35.4183 22.4079 35.4607 21.976C35.52 21.9842 35.6004 22.0176 35.702 22.0763C35.9222 22.2034 36.0323 22.3419 36.0323 22.4918L36.0323 22.5212C35.9843 23.0052 35.9335 23.4257 35.8799 23.7826C36.0295 23.7125 36.1988 23.732 36.388 23.8412C36.5771 23.9504 36.7267 24.0922 36.8368 24.2666C36.9469 24.441 37.0019 24.6129 37.0019 24.7824C37.0019 24.828 36.9934 24.9079 36.9765 25.022C36.9116 25.4734 36.8791 25.7415 36.8791 25.8262C36.8791 25.9794 36.9229 26.0813 37.0104 26.1318C37.0838 26.1742 37.1614 26.1636 37.2433 26.1C37.3279 26.0348 37.3957 25.8996 37.4465 25.6942C37.5425 25.867 37.6003 25.9933 37.6201 26.0731C37.4733 26.5555 37.2136 26.6892 36.841 26.474C36.666 26.373 36.5362 26.2361 36.4515 26.0633C36.3668 25.8906 36.3244 25.7358 36.3244 25.5989ZM38.0607 26.0635C38.2357 26.1222 38.3656 26.1157 38.4503 26.044C38.5378 25.9739 38.5815 25.8834 38.5815 25.7726C38.5815 25.6585 38.5547 25.5665 38.5011 25.4964C38.4503 25.4247 38.3938 25.3709 38.3317 25.335C38.199 25.2584 38.0819 25.2772 37.9803 25.3913C37.8815 25.5037 37.8321 25.6789 37.8321 25.9168C37.8321 26.1515 37.8801 26.3552 37.9761 26.528C38.0748 26.6991 38.1962 26.8262 38.3402 26.9093C38.5519 27.0316 38.7551 27.0642 38.9499 27.0071C39.1447 26.9501 39.3027 26.8197 39.4241 26.616C39.4862 26.7203 39.5427 26.8376 39.5935 26.968C39.5003 27.1587 39.3352 27.3029 39.0981 27.4007C38.9795 27.4463 38.8384 27.4577 38.6747 27.4349C38.5138 27.4137 38.3472 27.3534 38.1751 27.254C37.8928 27.0911 37.6698 26.8629 37.5061 26.5695C37.3311 26.2534 37.2435 25.9274 37.2435 25.5917C37.2435 25.256 37.3522 25.0254 37.5696 24.8999C37.7898 24.776 38.0523 24.8021 38.3571 24.9781C38.5745 25.1036 38.7509 25.2609 38.8864 25.4499C39.0219 25.6357 39.091 25.8223 39.0939 26.0097C39.0939 26.2607 39.0064 26.4139 38.8313 26.4693C38.6592 26.5264 38.422 26.4987 38.12 26.3862L38.0607 26.0635ZM39.8129 28.2045C39.6407 28.1051 39.5052 27.9715 39.4064 27.8036C39.3076 27.6325 39.2582 27.4492 39.2582 27.2536C39.2582 27.2014 39.3344 26.4713 39.4869 25.0633C39.5264 24.7015 39.6322 24.5197 39.8044 24.5181C39.8835 24.5149 39.978 24.545 40.0881 24.6086C40.4607 24.8237 40.647 25.1301 40.647 25.5277C40.647 25.5603 40.6456 25.5937 40.6428 25.6279C40.6146 26.0484 40.3774 26.3564 39.9315 26.552C39.9173 26.7036 39.9018 26.8494 39.8849 26.9896C39.851 27.3057 39.8341 27.4817 39.8341 27.5176C39.8341 27.6871 39.8976 27.8085 40.0246 27.8818C40.1629 27.9617 40.2914 27.9446 40.4099 27.8305C40.5313 27.7148 40.6244 27.5323 40.6894 27.2829C40.7148 27.3074 40.75 27.3554 40.7952 27.4271C40.8404 27.4956 40.8714 27.551 40.8884 27.5934C40.8432 27.8378 40.7416 28.0383 40.5835 28.1947C40.5045 28.2762 40.4043 28.3227 40.2829 28.3341C40.1446 28.3488 39.9879 28.3056 39.8129 28.2045ZM39.978 26.09C40.2377 25.9107 40.3676 25.6907 40.3676 25.4299C40.3676 25.2735 40.3168 25.1659 40.2151 25.1073C40.1502 25.0763 40.1065 25.0999 40.0839 25.1781C40.0641 25.258 40.0444 25.3949 40.0246 25.5888C40.0077 25.7844 39.9964 25.905 39.9907 25.9506L39.978 26.09ZM41.1071 28.9517C40.9349 28.8523 40.7994 28.7187 40.7006 28.5508C40.6018 28.3797 40.5524 28.1964 40.5524 28.0008C40.5524 27.9487 40.6287 27.2185 40.7811 25.8105C40.8206 25.4487 40.9265 25.267 41.0986 25.2653C41.1777 25.2621 41.2722 25.2922 41.3823 25.3558C41.7549 25.5709 41.9412 25.8773 41.9412 26.2749C41.9412 26.3075 41.9398 26.3409 41.937 26.3752C41.9088 26.7956 41.6717 27.1036 41.2257 27.2992C41.2116 27.4508 41.196 27.5966 41.1791 27.7368C41.1452 28.053 41.1283 28.229 41.1283 28.2648C41.1283 28.4343 41.1918 28.5557 41.3188 28.6291C41.4571 28.7089 41.5856 28.6918 41.7041 28.5777C41.8255 28.462 41.9187 28.2795 41.9836 28.0301C42.009 28.0546 42.0443 28.1027 42.0894 28.1744C42.1346 28.2428 42.1656 28.2982 42.1826 28.3406C42.1374 28.5851 42.0358 28.7855 41.8777 28.942C41.7987 29.0234 41.6985 29.0699 41.5771 29.0813C41.4388 29.096 41.2821 29.0528 41.1071 28.9517ZM41.2722 26.8372C41.5319 26.6579 41.6618 26.4379 41.6618 26.1772C41.6618 26.0207 41.611 25.9131 41.5094 25.8545C41.4444 25.8235 41.4007 25.8471 41.3781 25.9254C41.3583 26.0052 41.3386 26.1421 41.3188 26.3361C41.3019 26.5316 41.2906 26.6522 41.2849 26.6978L41.2722 26.8372ZM42.9433 27.626C43.203 27.7759 43.4189 27.9967 43.5911 28.2884C43.7661 28.5818 43.8536 28.867 43.8536 29.144C43.8536 29.5645 43.7464 29.8399 43.5318 29.9703C43.3201 30.0991 43.0633 30.0762 42.7612 29.9019C42.4592 29.7275 42.2193 29.4895 42.0414 29.188C41.8664 28.8882 41.7789 28.5916 41.7789 28.2982C41.7789 27.8875 41.8876 27.6243 42.1049 27.5086C42.3251 27.3913 42.6046 27.4304 42.9433 27.626ZM42.8586 27.9731C42.7259 27.8965 42.6144 27.9201 42.5241 28.044C42.4338 28.1678 42.3844 28.361 42.3759 28.6233C42.3759 28.8124 42.4084 28.9876 42.4733 29.1489C42.5411 29.3119 42.6427 29.4325 42.7782 29.5107C42.9137 29.589 43.0266 29.5678 43.1169 29.4472C43.21 29.3282 43.2566 29.1579 43.2566 28.9363C43.2566 28.7146 43.2242 28.5199 43.1592 28.352C43.0943 28.1776 42.9941 28.0513 42.8586 27.9731Z" fill="url(#paint0_linear_441_6888)"/>
<defs>
<linearGradient id="paint0_linear_441_6888" x1="44.5551" y1="25.9082" x2="34.4996" y2="25.9082" gradientUnits="userSpaceOnUse">
<stop stop-color="#FC00FF"/>
<stop offset="1" stop-color="#00DBDE"/>
</linearGradient>
</defs>
</svg>
