<svg width="208" height="283" viewBox="0 0 208 283" fill="none" xmlns="http://www.w3.org/2000/svg">
<rect y="82.6277" width="208" height="200.372" fill="#C44C29"/>
<path fill-rule="evenodd" clip-rule="evenodd" d="M207.538 57.8394L104 0L0.462225 57.8394H0V58.0976V82.6277H208L208 58.0976L208 57.8394H207.538Z" fill="#6B685F"/>
<path d="M75.5425 59.9447C75.5425 48.5143 84.8086 39.2482 96.239 39.2482H111.761C123.192 39.2482 132.458 48.5143 132.458 59.9447V66.1022H75.5425V59.9447Z" fill="#A8AEAC"/>
<path d="M155.224 82.6276H182.129V283H155.224V82.6276Z" fill="#B03C1A"/>
<path d="M25.8706 82.6277H52.7761V283H25.8706V82.6277Z" fill="#B03C1A"/>
<rect y="258.212" width="208" height="24.7883" fill="#35352B"/>
<rect x="63.1242" y="98.1225" width="25.8706" height="73.3282" fill="#8EBDC0" stroke="white" stroke-width="2.06965"/>
<path d="M63.1245 115.679H90.03" stroke="white" stroke-width="2.06965"/>
<path d="M63.1245 135.303H90.03" stroke="white" stroke-width="2.06965"/>
<path d="M63.1245 154.927H90.03" stroke="white" stroke-width="2.06965"/>
<path d="M76.5771 98.1205V171.453" stroke="white" stroke-width="2.06965"/>
<rect x="119.005" y="98.1225" width="25.8706" height="73.3282" fill="#8EBDC0" stroke="white" stroke-width="2.06965"/>
<path d="M119.005 115.679H145.91" stroke="white" stroke-width="2.06965"/>
<path d="M119.005 135.303H145.91" stroke="white" stroke-width="2.06965"/>
<path d="M119.005 154.927H145.91" stroke="white" stroke-width="2.06965"/>
<path d="M132.458 98.1205V171.453" stroke="white" stroke-width="2.06965"/>
<path d="M103.483 183.847L135.745 211.734H71.2201L103.483 183.847Z" fill="#95868B"/>
<rect x="71.4028" y="211.734" width="11.3831" height="71.2664" fill="#D0D5BF"/>
<rect x="124.179" y="211.734" width="11.3831" height="71.2664" fill="#D0D5BF"/>
<rect x="90.0298" y="218.964" width="27.0672" height="64.0365" fill="white"/>
<rect x="90.531" y="219.465" width="12.5311" height="35.5183" fill="#8EBDC0" stroke="white" stroke-width="1.00249"/>
<path d="M90.5312 227.969H103.564" stroke="white" stroke-width="1.00249"/>
<path d="M90.5312 237.474H103.564" stroke="white" stroke-width="1.00249"/>
<path d="M90.5312 246.979H103.564" stroke="white" stroke-width="1.00249"/>
<path d="M97.0474 219.464V254.984" stroke="white" stroke-width="1.00249"/>
<rect x="104.065" y="219.465" width="12.5311" height="35.5183" fill="#8EBDC0" stroke="white" stroke-width="1.00249"/>
<path d="M104.064 227.969H117.097" stroke="white" stroke-width="1.00249"/>
<path d="M104.064 237.474H117.097" stroke="white" stroke-width="1.00249"/>
<path d="M104.064 246.979H117.097" stroke="white" stroke-width="1.00249"/>
<path d="M110.581 219.464V254.984" stroke="white" stroke-width="1.00249"/>
<rect x="104.566" y="255.484" width="1.50373" height="5.50314" fill="#5F4924"/>
</svg>
