<svg width="279" height="285" viewBox="0 0 279 285" fill="none" xmlns="http://www.w3.org/2000/svg">
<rect x="73.5972" y="22.7465" width="131.137" height="41.4789" fill="#D8E0E3"/>
<path fill-rule="evenodd" clip-rule="evenodd" d="M137.654 0.30577L73.5972 53.1319H204.734L139.346 0.29731C138.852 -0.102259 138.144 -0.0987226 137.654 0.30577ZM204.734 53.1319V128.062H73.5972V53.1319H204.734ZM120.432 63.8361C109.346 63.8361 100.36 72.8227 100.36 83.9081V128.061H177.971V83.9081C177.971 72.8226 168.985 63.8361 157.899 63.8361H120.432Z" fill="#B14526"/>
<path fill-rule="evenodd" clip-rule="evenodd" d="M137.634 64.2253C136.789 64.2253 136.103 64.9109 136.103 65.7566V68.3604C129.393 69.7257 124.247 75.4899 123.892 82.582L122.442 111.582C122.376 112.891 123.42 113.988 124.73 113.988H134.833C134.664 114.347 134.572 114.733 134.572 115.136C134.572 117.039 136.628 118.582 139.165 118.582C141.702 118.582 143.759 117.039 143.759 115.136C143.759 114.733 143.667 114.347 143.498 113.988H153.601C154.911 113.988 155.955 112.891 155.889 111.582L154.439 82.5821C154.084 75.4899 148.938 69.7256 142.228 68.3604V65.7566C142.228 64.9109 141.542 64.2253 140.697 64.2253H137.634Z" fill="#F4CD00"/>
<path d="M43.0544 130.583C42.4029 129.7 43.0336 128.451 44.1313 128.451H234.199C235.297 128.451 235.928 129.7 235.276 130.583L214.648 158.556H63.6827L43.0544 130.583Z" fill="#D8E0E3"/>
<path fill-rule="evenodd" clip-rule="evenodd" d="M214.77 158.556H63.561V252.887L94.3381 252.887V195.354C94.3381 184.268 103.325 175.282 114.41 175.282H163.921C175.006 175.282 183.993 184.268 183.993 195.354V252.887L214.77 252.887V158.556Z" fill="#B14526"/>
<path fill-rule="evenodd" clip-rule="evenodd" d="M169.942 179.965H107.719C100.329 179.965 94.338 185.956 94.338 193.347V231.479V246.197V252.887H87.6474H63.561V231.479H87.6474V193.347C87.6474 182.261 96.6339 173.275 107.719 173.275H169.942C181.028 173.275 190.014 182.261 190.014 193.347V231.479H214.77V252.887H190.014H183.993H183.324L183.324 226.127L183.324 193.347C183.324 185.956 177.333 179.965 169.942 179.965Z" fill="#A8A6A7"/>
<rect x="30.7769" y="252.887" width="217.446" height="10.705" fill="#D9D9D9"/>
<rect x="14.7197" y="263.592" width="249.561" height="10.705" fill="#B5B2B2"/>
<rect y="274.296" width="279" height="10.705" fill="#6F6F6F"/>
<rect x="131.806" y="226.796" width="14.7194" height="26.0915" fill="#8D8D8D"/>
<rect x="155.892" y="234.824" width="14.7194" height="18.0634" fill="#8D8D8D"/>
<rect x="107.72" y="240.176" width="14.7194" height="12.7122" fill="#8D8D8D"/>
<ellipse cx="139.166" cy="37.4648" rx="14.7194" ry="14.7183" fill="#F8FEFC"/>
<path d="M152.212 37.4648C152.212 44.6696 146.371 50.5104 139.166 50.5104C131.96 50.5104 126.119 44.6696 126.119 37.4648C126.119 30.26 131.96 24.4191 139.166 24.4191C146.371 24.4191 152.212 30.26 152.212 37.4648Z" stroke="#D8E0E3" stroke-width="3.34532"/>
<path d="M138.497 28.7676V38.1345H145.187" stroke="black" stroke-width="1.33813" stroke-linecap="round" stroke-linejoin="round"/>
</svg>
