<svg width="775" height="781" viewBox="0 0 775 781" fill="none" xmlns="http://www.w3.org/2000/svg">
<rect width="166" height="84" rx="20" transform="matrix(0.866025 -0.5 0.866025 0.5 171 343)" fill="#27005D"/>
<path d="M271.099 345.688C268.965 346.92 266.637 347.848 264.115 348.472C261.593 349.064 259.002 349.36 256.342 349.36C253.681 349.328 251.076 348.992 248.527 348.352C245.949 347.696 243.566 346.736 241.377 345.472C239.243 344.24 237.649 342.888 236.596 341.416C235.516 339.928 234.989 338.408 235.017 336.856C235.017 335.288 235.557 333.76 236.638 332.272C237.719 330.784 239.326 329.424 241.46 328.192C242.846 327.392 244.398 326.72 246.116 326.176C247.834 325.6 249.608 325.2 251.437 324.976C253.293 324.736 255.122 324.672 256.924 324.784L257.339 329.536C256.009 329.536 254.748 329.608 253.557 329.752C252.365 329.864 251.243 330.08 250.189 330.4C249.136 330.688 248.166 331.088 247.28 331.6C246.088 332.288 245.187 333.064 244.578 333.928C243.996 334.776 243.719 335.656 243.746 336.568C243.746 337.464 244.079 338.376 244.744 339.304C245.409 340.2 246.421 341.04 247.778 341.824C249.164 342.624 250.647 343.224 252.226 343.624C253.778 344.008 255.358 344.2 256.965 344.2C258.545 344.184 260.111 343.984 261.663 343.6C263.215 343.184 264.669 342.584 266.027 341.8C266.914 341.288 267.649 340.72 268.231 340.096C268.812 339.472 269.228 338.832 269.478 338.176C269.755 337.504 269.879 336.84 269.852 336.184L277.75 337.24C277.833 338.056 277.611 338.968 277.085 339.976C276.586 340.968 275.824 341.968 274.798 342.976C273.745 343.968 272.512 344.872 271.099 345.688ZM296.433 331.061C294.632 332.101 292.761 332.925 290.821 333.533C288.909 334.125 286.942 334.509 284.919 334.685C282.923 334.845 280.859 334.837 278.725 334.661L278.184 329.837C281.427 330.141 284.06 330.109 286.083 329.741C288.106 329.341 289.907 328.685 291.487 327.773C292.346 327.277 292.997 326.773 293.44 326.261C293.884 325.717 294.078 325.205 294.022 324.725C293.967 324.245 293.634 323.829 293.025 323.477C292.581 323.221 292.082 323.045 291.528 322.949C290.946 322.837 290.336 322.805 289.699 322.853C289.034 322.885 288.341 322.981 287.621 323.141C286.872 323.285 286.11 323.485 285.334 323.741C284.531 323.981 283.713 324.277 282.882 324.629C280.97 325.317 279.182 325.853 277.519 326.237C275.829 326.605 274.221 326.797 272.697 326.813C271.145 326.813 269.69 326.645 268.332 326.309C267.002 325.957 265.727 325.429 264.508 324.725C263.261 324.005 262.388 323.181 261.889 322.253C261.363 321.309 261.196 320.333 261.39 319.325C261.612 318.301 262.153 317.301 263.012 316.325C263.898 315.333 265.062 314.421 266.503 313.589C268.277 312.565 270.037 311.789 271.783 311.261C273.501 310.717 275.219 310.381 276.937 310.253C278.683 310.109 280.429 310.157 282.175 310.397L282.05 314.885C280.692 314.773 279.404 314.765 278.184 314.861C276.993 314.941 275.87 315.141 274.817 315.461C273.764 315.749 272.822 316.133 271.991 316.613C271.076 317.141 270.411 317.669 269.995 318.197C269.552 318.709 269.358 319.205 269.413 319.685C269.496 320.149 269.857 320.565 270.494 320.933C270.993 321.221 271.561 321.405 272.198 321.485C272.836 321.565 273.543 321.557 274.318 321.461C275.067 321.349 275.884 321.165 276.771 320.909C277.658 320.653 278.586 320.341 279.556 319.973C281.385 319.269 283.159 318.709 284.877 318.293C286.595 317.877 288.244 317.629 289.824 317.549C291.403 317.437 292.914 317.525 294.355 317.813C295.768 318.085 297.071 318.565 298.262 319.253C300.23 320.389 301.435 321.629 301.879 322.973C302.322 324.317 302.087 325.685 301.172 327.077C300.23 328.453 298.65 329.781 296.433 331.061ZM322.658 315.92C320.856 316.96 318.986 317.784 317.046 318.392C315.134 318.984 313.166 319.368 311.143 319.544C309.148 319.704 307.083 319.696 304.949 319.52L304.409 314.696C307.651 315 310.284 314.968 312.307 314.6C314.33 314.2 316.131 313.544 317.711 312.632C318.57 312.136 319.221 311.632 319.665 311.12C320.108 310.576 320.302 310.064 320.247 309.584C320.191 309.104 319.859 308.688 319.249 308.336C318.806 308.08 318.307 307.904 317.752 307.808C317.17 307.696 316.561 307.664 315.923 307.712C315.258 307.744 314.565 307.84 313.845 308C313.097 308.144 312.335 308.344 311.559 308.6C310.755 308.84 309.937 309.136 309.106 309.488C307.194 310.176 305.406 310.712 303.744 311.096C302.053 311.464 300.446 311.656 298.922 311.672C297.37 311.672 295.915 311.504 294.557 311.168C293.227 310.816 291.952 310.288 290.732 309.584C289.485 308.864 288.612 308.04 288.114 307.112C287.587 306.168 287.421 305.192 287.615 304.184C287.836 303.16 288.377 302.16 289.236 301.184C290.123 300.192 291.287 299.28 292.728 298.448C294.501 297.424 296.261 296.648 298.007 296.12C299.725 295.576 301.443 295.24 303.162 295.112C304.908 294.968 306.653 295.016 308.399 295.256L308.275 299.744C306.917 299.632 305.628 299.624 304.409 299.72C303.217 299.8 302.095 300 301.042 300.32C299.989 300.608 299.046 300.992 298.215 301.472C297.3 302 296.635 302.528 296.22 303.056C295.776 303.568 295.582 304.064 295.638 304.544C295.721 305.008 296.081 305.424 296.718 305.792C297.217 306.08 297.785 306.264 298.423 306.344C299.06 306.424 299.767 306.416 300.543 306.32C301.291 306.208 302.109 306.024 302.995 305.768C303.882 305.512 304.811 305.2 305.781 304.832C307.61 304.128 309.383 303.568 311.101 303.152C312.82 302.736 314.468 302.488 316.048 302.408C317.628 302.296 319.138 302.384 320.579 302.672C321.993 302.944 323.295 303.424 324.487 304.112C326.454 305.248 327.66 306.488 328.103 307.832C328.547 309.176 328.311 310.544 327.397 311.936C326.454 313.312 324.875 314.64 322.658 315.92Z" fill="white"/>
<rect width="311" height="84" rx="20" transform="matrix(0.866025 -0.5 0.866025 0.5 0 155.5)" fill="#27005D"/>
<path d="M86.9214 165.316L57.8229 148.516L70.4599 141.22C72.3998 140.1 74.3259 139.324 76.2381 138.892C78.1502 138.428 79.9932 138.308 81.7668 138.532C83.5404 138.756 85.1754 139.3 86.6719 140.164C88.3347 141.124 89.3047 142.164 89.5818 143.284C89.8589 144.404 89.4294 145.532 88.2931 146.668L87.4202 146.212C88.9998 145.652 90.621 145.292 92.2838 145.132C93.9466 144.972 95.5539 145.036 97.1058 145.324C98.6577 145.612 100.085 146.132 101.387 146.884C102.829 147.716 103.868 148.588 104.505 149.5C105.115 150.396 105.323 151.316 105.129 152.26C104.935 153.204 104.408 154.148 103.549 155.092C102.69 156.004 101.498 156.9 99.9741 157.78L86.9214 165.316ZM87.5033 158.74L94.3207 154.804C95.2075 154.292 95.831 153.788 96.1913 153.292C96.5516 152.764 96.6208 152.244 96.3991 151.732C96.1774 151.22 95.6925 150.748 94.9442 150.316C94.2237 149.9 93.4339 149.652 92.5748 149.572C91.7157 149.492 90.8289 149.572 89.9143 149.812C88.9998 150.02 88.0853 150.388 87.1708 150.916L80.5613 154.732L87.5033 158.74ZM75.6145 151.876L81.5174 148.468C82.2656 148.036 82.7783 147.58 83.0554 147.1C83.3325 146.62 83.3741 146.164 83.1801 145.732C83.0138 145.284 82.612 144.876 81.9746 144.508C80.9492 143.916 79.8269 143.652 78.6075 143.716C77.3881 143.78 76.1134 144.196 74.7831 144.964L69.2129 148.18L75.6145 151.876ZM125.554 143.491C123.309 144.787 120.815 145.667 118.072 146.131C115.328 146.563 112.585 146.579 109.841 146.179C107.125 145.763 104.659 144.915 102.442 143.635C100.225 142.355 98.7697 140.939 98.0768 139.387C97.384 137.803 97.4117 136.219 98.16 134.635C98.9359 133.035 100.446 131.587 102.691 130.291C104.908 129.011 107.388 128.155 110.132 127.723C112.903 127.275 115.647 127.259 118.363 127.675C121.051 128.075 123.503 128.915 125.72 130.195C127.937 131.475 129.406 132.899 130.127 134.467C130.847 136.035 130.82 137.619 130.044 139.219C129.268 140.787 127.771 142.211 125.554 143.491ZM120.4 140.515C121.48 139.891 122.187 139.179 122.52 138.379C122.824 137.563 122.741 136.747 122.27 135.931C121.799 135.083 120.968 134.315 119.776 133.627C118.557 132.923 117.226 132.443 115.785 132.187C114.344 131.899 112.931 131.851 111.545 132.043C110.132 132.219 108.885 132.619 107.804 133.243C106.696 133.883 105.989 134.611 105.684 135.427C105.379 136.243 105.448 137.067 105.892 137.899C106.335 138.731 107.181 139.491 108.428 140.179C109.592 140.883 110.908 141.371 112.377 141.643C113.818 141.899 115.245 141.939 116.658 141.763C118.044 141.571 119.291 141.155 120.4 140.515ZM151.819 128.327C149.574 129.623 147.08 130.503 144.337 130.967C141.593 131.399 138.849 131.415 136.106 131.015C133.39 130.599 130.924 129.751 128.707 128.471C126.49 127.191 125.035 125.775 124.342 124.223C123.649 122.639 123.677 121.055 124.425 119.471C125.201 117.871 126.711 116.423 128.956 115.127C131.173 113.847 133.653 112.991 136.397 112.559C139.168 112.111 141.912 112.095 144.628 112.511C147.316 112.911 149.768 113.751 151.985 115.031C154.202 116.311 155.671 117.735 156.392 119.303C157.112 120.871 157.084 122.455 156.309 124.055C155.533 125.623 154.036 127.047 151.819 128.327ZM146.664 125.351C147.745 124.727 148.452 124.015 148.784 123.215C149.089 122.399 149.006 121.583 148.535 120.767C148.064 119.919 147.233 119.151 146.041 118.463C144.822 117.759 143.491 117.279 142.05 117.023C140.609 116.735 139.196 116.687 137.81 116.879C136.397 117.055 135.15 117.455 134.069 118.079C132.96 118.719 132.254 119.447 131.949 120.263C131.644 121.079 131.713 121.903 132.157 122.735C132.6 123.567 133.445 124.327 134.693 125.015C135.856 125.719 137.173 126.207 138.642 126.479C140.083 126.735 141.51 126.775 142.923 126.599C144.309 126.407 145.556 125.991 146.664 125.351ZM169.562 117.603L142.002 101.691L147.905 98.2832L175.465 114.195L169.562 117.603ZM148.736 110.331L143.457 107.283L157.964 98.9072L163.244 101.955L148.736 110.331ZM192.429 104.881C190.378 106.065 188.217 106.929 185.944 107.473C183.672 107.985 181.455 108.177 179.293 108.049L179.792 104.113C181.565 104.145 183.187 103.977 184.655 103.609C186.097 103.225 187.344 102.729 188.397 102.121C188.812 101.881 189.145 101.641 189.394 101.401C189.644 101.129 189.81 100.873 189.893 100.633C189.949 100.377 189.907 100.145 189.768 99.9372C189.63 99.6972 189.408 99.4892 189.103 99.3132C188.494 98.9612 187.759 98.8252 186.9 98.9052C186.485 98.9852 185.889 99.1372 185.113 99.3612C184.309 99.5692 183.325 99.8652 182.161 100.249C180.388 100.857 178.766 101.313 177.298 101.617C175.829 101.889 174.499 102.017 173.307 102.001C172.226 101.953 171.215 101.817 170.273 101.593C169.33 101.337 168.443 100.969 167.612 100.489C166.614 99.9132 165.935 99.2652 165.575 98.5452C165.187 97.8092 165.09 97.0492 165.284 96.2652C165.506 95.4652 165.977 94.6812 166.698 93.9132C167.39 93.1292 168.305 92.4092 169.441 91.7532C170.577 91.0972 171.824 90.5372 173.182 90.0732C174.54 89.6092 175.94 89.2652 177.381 89.0412C178.822 88.7852 180.235 88.6572 181.621 88.6572L181.953 92.4972C180.984 92.5132 179.986 92.5932 178.96 92.7372C177.963 92.8652 177.021 93.0572 176.134 93.3132C175.247 93.5692 174.54 93.8492 174.014 94.1532C173.543 94.4252 173.155 94.6972 172.85 94.9692C172.573 95.2252 172.393 95.4732 172.309 95.7132C172.226 95.9532 172.254 96.1932 172.393 96.4332C172.531 96.6412 172.753 96.8332 173.058 97.0092C173.362 97.1852 173.723 97.3132 174.138 97.3932C174.582 97.4572 175.039 97.4652 175.51 97.4172C175.981 97.3372 176.619 97.1932 177.422 96.9852C178.254 96.7612 179.321 96.4332 180.623 96.0012C182.314 95.4412 183.838 95.0252 185.196 94.7532C186.582 94.4652 187.842 94.3292 188.979 94.3452C189.949 94.3612 190.863 94.4892 191.722 94.7292C192.581 94.9692 193.399 95.3132 194.175 95.7612C195.533 96.5452 196.364 97.4732 196.669 98.5452C196.974 99.5852 196.766 100.665 196.045 101.785C195.297 102.889 194.092 103.921 192.429 104.881ZM207.113 95.9236L179.552 80.0116L185.455 76.6036L213.015 92.5156L207.113 95.9236ZM186.286 88.6516L181.007 85.6036L195.515 77.2276L200.794 80.2756L186.286 88.6516ZM221.352 87.7022L199.362 75.0062L205.057 71.7182L212.332 75.6782L209.879 75.4142C209.076 74.5662 208.591 73.6622 208.424 72.7022C208.23 71.7262 208.369 70.7982 208.84 69.9182C209.339 69.0222 210.142 68.2542 211.251 67.6142C211.722 67.3422 212.221 67.1022 212.747 66.8942C213.274 66.6862 213.745 66.5262 214.161 66.4142L219.066 71.0702C218.567 71.1662 218.027 71.3182 217.445 71.5262C216.835 71.7182 216.281 71.9582 215.782 72.2462C215.117 72.6302 214.618 73.0622 214.286 73.5422C213.953 73.9902 213.801 74.4622 213.828 74.9582C213.828 75.4382 213.995 75.9182 214.327 76.3982C214.687 76.8622 215.214 77.2942 215.907 77.6942L227.297 84.2702L221.352 87.7022ZM247.292 73.2059C245.463 74.2619 243.315 74.9259 240.849 75.1979C238.382 75.4699 235.861 75.3579 233.283 74.8619C230.706 74.3659 228.309 73.4779 226.092 72.1979C223.875 70.9179 222.351 69.5419 221.519 68.0699C220.688 66.5659 220.535 65.1019 221.062 63.6779C221.561 62.2379 222.766 60.9659 224.679 59.8619C225.759 59.2379 226.909 58.7659 228.129 58.4459C229.348 58.0939 230.567 57.8859 231.787 57.8219C233.034 57.7419 234.253 57.7739 235.445 57.9179C236.637 58.0619 237.745 58.3179 238.77 58.6859L237.316 59.2859L231.953 56.1899L237.814 52.8059L259.805 65.5019L253.86 68.9339L248.581 65.8859L249.786 65.0459C250.341 65.6219 250.715 66.2539 250.909 66.9419C251.103 67.6299 251.103 68.3499 250.909 69.1019C250.715 69.8219 250.327 70.5419 249.745 71.2619C249.135 71.9659 248.318 72.6139 247.292 73.2059ZM243.8 69.3179C244.909 68.6779 245.616 67.9659 245.92 67.1819C246.225 66.3979 246.128 65.6059 245.629 64.8059C245.131 63.9739 244.244 63.1899 242.969 62.4539C241.722 61.7339 240.392 61.2379 238.978 60.9659C237.593 60.6779 236.221 60.6219 234.863 60.7979C233.477 60.9579 232.23 61.3579 231.122 61.9979C230.041 62.6219 229.362 63.3339 229.085 64.1339C228.808 64.9019 228.905 65.6939 229.376 66.5099C229.847 67.3259 230.706 68.0939 231.953 68.8139C233.228 69.5499 234.586 70.0619 236.027 70.3499C237.44 70.6219 238.812 70.6779 240.142 70.5179C241.5 70.3419 242.72 69.9419 243.8 69.3179ZM274.868 67.3651L243.732 49.3891L249.427 46.1011L254.54 48.8611L253.086 49.2691C252.393 48.6451 252.046 47.9011 252.046 47.0371C252.074 46.1571 252.42 45.2531 253.086 44.3251C253.751 43.3971 254.707 42.5731 255.954 41.8531C257.866 40.7491 260.055 40.0611 262.522 39.7891C264.988 39.4851 267.51 39.5811 270.087 40.0771C272.665 40.5411 275.062 41.4131 277.279 42.6931C279.468 43.9571 280.992 45.3331 281.851 46.8211C282.711 48.3091 282.891 49.7731 282.392 51.2131C281.865 52.6371 280.646 53.9011 278.734 55.0051C277.459 55.7411 276.004 56.3091 274.369 56.7091C272.734 57.0771 271.113 57.2611 269.505 57.2611C267.898 57.2611 266.54 57.0531 265.432 56.6371L266.221 55.5091L280.812 63.9331L274.868 67.3651ZM272.332 52.8451C273.413 52.2211 274.106 51.5171 274.411 50.7331C274.715 49.9491 274.632 49.1491 274.161 48.3331C273.662 47.5011 272.789 46.7251 271.542 46.0051C270.295 45.2851 268.965 44.7891 267.552 44.5171C266.138 44.2451 264.753 44.1971 263.395 44.3731C262.065 44.5331 260.845 44.9331 259.737 45.5731C258.628 46.2131 257.921 46.9251 257.617 47.7091C257.284 48.4771 257.367 49.2771 257.866 50.1091C258.337 50.9251 259.196 51.6931 260.443 52.4131C261.69 53.1331 263.034 53.6371 264.476 53.9251C265.889 54.1971 267.275 54.2451 268.632 54.0691C269.99 53.8931 271.224 53.4851 272.332 52.8451Z" fill="white"/>
<rect width="189" height="84" rx="20" transform="matrix(0.866025 -0.5 2.20305e-08 1 172 203.335)" fill="#27005D"/>
<path d="M215.043 238.484L215.043 204.884L221.278 201.284L221.278 234.884L215.043 238.484ZM196.711 249.068L196.711 215.468L202.946 211.868L202.946 245.468L196.711 249.068ZM199.205 234.14L199.246 227.588L218.243 216.62L218.243 223.148L199.205 234.14ZM234.931 227.002L234.931 199.882L226.451 204.778L226.451 198.298L249.896 184.762L249.896 191.242L241.166 196.282L241.166 223.402L234.931 227.002ZM255.045 215.388L255.045 181.788L260.74 178.5L271.341 192.3L267.599 194.412L278.324 168.348L283.77 165.204L283.77 198.804L277.659 202.332L277.659 190.812C277.659 187.932 277.715 185.308 277.825 182.94C277.964 180.556 278.186 178.14 278.491 175.692L279.239 177.516L270.717 197.7L267.973 199.284L259.618 188.94L260.325 186.18C260.63 188.148 260.837 190.236 260.948 192.444C261.087 194.604 261.156 197.236 261.156 200.34L261.156 211.86L255.045 215.388ZM291.337 194.435L291.337 160.835L297.573 157.235L297.573 184.355L310.75 176.747L310.75 183.227L291.337 194.435Z" fill="white"/>
<rect width="241.537" height="84" rx="20" transform="matrix(0.866025 0.5 -2.20305e-08 1 565 68)" fill="#27005D"/>
<path d="M606.943 152.696C605.918 152.104 604.948 151.4 604.033 150.584C603.147 149.784 602.315 148.904 601.539 147.944C600.791 147 600.112 145.984 599.502 144.896C598.893 143.776 598.38 142.632 597.964 141.464L601.581 139.184C602.052 140.192 602.481 141.064 602.869 141.8C603.285 142.52 603.673 143.128 604.033 143.624C604.421 144.136 604.809 144.568 605.197 144.92C605.585 145.24 606.001 145.528 606.444 145.784C607.22 146.232 607.899 146.416 608.481 146.336C609.091 146.272 609.548 145.96 609.853 145.4C610.186 144.856 610.352 144.104 610.352 143.144L610.352 126.968L605.031 123.896L605.031 117.512L620.952 126.704L620.952 133.088L616.463 130.496L616.463 147.488C616.463 149.088 616.227 150.408 615.756 151.448C615.285 152.488 614.62 153.24 613.761 153.704C612.901 154.136 611.89 154.272 610.726 154.112C609.59 153.968 608.329 153.496 606.943 152.696ZM639.592 181.626L639.592 164.97L640.797 165.906C640.742 166.674 640.478 167.306 640.007 167.802C639.564 168.282 638.968 168.61 638.22 168.786C637.499 168.978 636.696 168.994 635.809 168.834C634.922 168.674 633.994 168.314 633.024 167.754C631.084 166.634 629.352 165.074 627.827 163.074C626.331 161.058 625.139 158.802 624.253 156.306C623.393 153.826 622.964 151.306 622.964 148.746C622.964 146.186 623.393 144.162 624.253 142.674C625.112 141.186 626.289 140.314 627.786 140.058C629.282 139.77 630.987 140.178 632.899 141.282C633.952 141.89 634.95 142.658 635.892 143.586C636.862 144.498 637.721 145.474 638.469 146.514C639.217 147.554 639.827 148.594 640.298 149.634C640.769 150.674 641.033 151.626 641.088 152.49L639.675 151.914L639.841 145.818L645.494 149.082L645.494 185.034L639.592 181.626ZM634.229 162.546C635.338 163.186 636.308 163.442 637.139 163.314C637.97 163.186 638.608 162.706 639.051 161.874C639.522 161.058 639.758 159.914 639.758 158.442C639.758 156.97 639.522 155.554 639.051 154.194C638.608 152.818 637.97 151.586 637.139 150.498C636.308 149.41 635.338 148.546 634.229 147.906C633.121 147.266 632.151 147.026 631.319 147.186C630.488 147.314 629.837 147.802 629.366 148.65C628.922 149.482 628.7 150.618 628.7 152.058C628.7 153.498 628.922 154.906 629.366 156.282C629.837 157.642 630.488 158.866 631.319 159.954C632.151 161.042 633.121 161.906 634.229 162.546ZM658.98 182.74C657.373 181.812 655.987 180.612 654.823 179.14C653.687 177.652 652.8 175.971 652.163 174.099C651.553 172.211 651.248 170.195 651.248 168.051L651.248 152.403L657.151 155.811L657.151 170.355C657.151 171.507 657.317 172.611 657.65 173.668C657.982 174.691 658.454 175.604 659.063 176.404C659.673 177.204 660.421 177.86 661.308 178.372C661.945 178.74 662.541 178.972 663.095 179.068C663.65 179.132 664.121 179.051 664.509 178.827C664.897 178.603 665.202 178.251 665.423 177.772C665.645 177.291 665.756 176.699 665.756 175.995L665.756 160.779L671.659 164.187L671.659 189.58L666.047 186.34L665.839 180.988L666.92 181.036C666.587 182.028 666.033 182.78 665.257 183.292C664.481 183.804 663.553 184.02 662.472 183.94C661.391 183.86 660.227 183.46 658.98 182.74ZM688.032 199.513C685.649 198.137 683.57 196.377 681.797 194.233C680.023 192.089 678.637 189.753 677.64 187.225C676.642 184.697 676.143 182.169 676.143 179.641C676.143 177.689 676.42 176.057 676.975 174.745C677.529 173.433 678.305 172.473 679.303 171.865C680.3 171.225 681.478 170.977 682.836 171.121C684.222 171.249 685.718 171.777 687.325 172.705C688.822 173.569 690.208 174.689 691.482 176.065C692.757 177.409 693.852 178.921 694.766 180.601C695.709 182.265 696.429 184.009 696.928 185.833C697.427 187.657 697.648 189.465 697.593 191.257L697.551 193.345L679.884 183.145L678.928 178.417L692.688 186.361L692.023 186.841L692.023 185.785C691.967 184.889 691.718 183.961 691.274 183.001C690.859 182.057 690.318 181.201 689.653 180.433C688.988 179.665 688.24 179.041 687.409 178.561C686.189 177.857 685.15 177.529 684.291 177.577C683.459 177.641 682.822 178.073 682.379 178.873C681.935 179.673 681.714 180.825 681.714 182.329C681.714 183.865 681.991 185.353 682.545 186.793C683.127 188.249 683.931 189.593 684.956 190.825C686.009 192.041 687.242 193.057 688.656 193.873C689.626 194.433 690.512 194.769 691.316 194.881C692.12 194.993 692.979 194.881 693.893 194.545L696.72 200.737C695.916 201.105 695.03 201.297 694.06 201.313C693.09 201.297 692.092 201.137 691.067 200.833C690.041 200.529 689.03 200.089 688.032 199.513ZM701.955 207.071L701.955 181.679L707.65 184.967L707.858 193.247L706.86 190.991C707.193 189.871 707.733 188.999 708.482 188.375C709.23 187.719 710.103 187.375 711.1 187.343C712.126 187.327 713.193 187.639 714.301 188.279C714.772 188.551 715.23 188.863 715.673 189.215C716.116 189.567 716.491 189.895 716.795 190.199L715.216 196.775C714.883 196.391 714.481 195.999 714.01 195.599C713.539 195.167 713.054 194.807 712.555 194.519C711.89 194.135 711.267 193.919 710.685 193.871C710.13 193.807 709.645 193.911 709.23 194.183C708.814 194.423 708.482 194.807 708.232 195.335C708.01 195.879 707.9 196.551 707.9 197.351L707.9 210.503L701.955 207.071ZM723.258 230.411L728.08 220.139L728.164 224.123L717.439 190.619L724.131 194.483L729.494 212.219C729.715 212.891 729.923 213.651 730.117 214.499C730.339 215.331 730.519 216.123 730.658 216.875L729.66 216.779C729.826 216.331 730.02 215.819 730.242 215.243C730.464 214.667 730.685 214.043 730.907 213.371L735.521 201.059L742.256 204.947L733.027 225.011L729.244 233.867L723.258 230.411Z" fill="white"/>
<rect width="336.222" height="84" rx="20" transform="matrix(0.866025 0.5 -0.866025 0.5 212.746 570)" fill="#27005D"/>
<path d="M202.312 624.456C201.287 623.864 200.442 623.232 199.777 622.56C199.139 621.904 198.654 621.224 198.322 620.52C198.017 619.832 197.878 619.128 197.906 618.408C197.961 617.672 198.183 616.952 198.571 616.248L205.97 616.152C205.804 616.792 205.693 617.352 205.638 617.832C205.638 618.312 205.693 618.728 205.804 619.08C205.943 619.448 206.151 619.776 206.428 620.064C206.732 620.336 207.107 620.6 207.55 620.856C208.326 621.304 209.185 621.592 210.127 621.72C211.097 621.864 212.053 621.84 212.996 621.648C213.966 621.472 214.866 621.144 215.698 620.664L229.706 612.576L224.386 609.504L229.914 606.312L245.835 615.504L240.307 618.696L235.817 616.104L221.102 624.6C219.716 625.4 218.219 625.992 216.612 626.376C215.005 626.76 213.356 626.944 211.665 626.928C210.003 626.896 208.368 626.672 206.76 626.256C205.181 625.856 203.698 625.256 202.312 624.456ZM228.019 639.298C226.19 638.242 225.039 637.002 224.568 635.578C224.097 634.154 224.291 632.698 225.15 631.21C226.009 629.722 227.547 628.338 229.765 627.058C231.982 625.778 234.365 624.898 236.914 624.418C239.519 623.938 242.055 623.85 244.522 624.154C247.016 624.442 249.219 625.138 251.131 626.242C252.212 626.866 253.029 627.53 253.584 628.234C254.193 628.938 254.554 629.642 254.664 630.346C254.803 631.066 254.748 631.77 254.498 632.458C254.249 633.146 253.805 633.786 253.168 634.378L252.129 633.538L257.491 630.442L263.352 633.826L241.362 646.522L235.418 643.09L240.697 640.042L242.152 640.738C241.154 641.058 240.06 641.274 238.868 641.386C237.677 641.498 236.429 641.498 235.127 641.386C233.88 641.274 232.633 641.05 231.386 640.714C230.166 640.362 229.044 639.89 228.019 639.298ZM234.753 637.282C235.861 637.922 237.095 638.33 238.452 638.506C239.81 638.682 241.182 638.626 242.568 638.338C244.009 638.05 245.367 637.538 246.642 636.802C247.889 636.082 248.748 635.314 249.219 634.498C249.718 633.698 249.815 632.906 249.51 632.122C249.233 631.322 248.54 630.602 247.431 629.962C246.351 629.338 245.117 628.946 243.732 628.786C242.402 628.626 241.03 628.682 239.616 628.954C238.203 629.226 236.873 629.722 235.626 630.442C234.351 631.178 233.464 631.962 232.965 632.794C232.494 633.61 232.397 634.402 232.674 635.17C232.979 635.954 233.672 636.658 234.753 637.282ZM253.694 653.641L266.456 635.617L272.94 639.361L262.382 652.225L260.761 651.577L283.582 645.505L289.901 649.153L258.225 656.257L253.694 653.641ZM278.722 668.571C276.893 667.515 275.743 666.275 275.271 664.851C274.8 663.427 274.994 661.971 275.853 660.483C276.713 658.995 278.251 657.611 280.468 656.331C282.685 655.051 285.068 654.171 287.618 653.691C290.223 653.211 292.758 653.123 295.225 653.427C297.719 653.715 299.922 654.411 301.834 655.515C302.915 656.139 303.733 656.803 304.287 657.507C304.896 658.211 305.257 658.915 305.368 659.619C305.506 660.339 305.451 661.043 305.201 661.731C304.952 662.419 304.508 663.059 303.871 663.651L302.832 662.811L308.194 659.715L314.056 663.099L292.065 675.795L286.121 672.363L291.4 669.315L292.855 670.011C291.858 670.331 290.763 670.547 289.571 670.659C288.38 670.771 287.133 670.771 285.83 670.659C284.583 670.547 283.336 670.323 282.089 669.987C280.869 669.635 279.747 669.163 278.722 668.571ZM285.456 666.555C286.564 667.195 287.798 667.603 289.156 667.779C290.513 667.955 291.885 667.899 293.271 667.611C294.712 667.323 296.07 666.811 297.345 666.075C298.592 665.355 299.451 664.587 299.922 663.771C300.421 662.971 300.518 662.179 300.213 661.395C299.936 660.595 299.243 659.875 298.135 659.235C297.054 658.611 295.821 658.219 294.435 658.059C293.105 657.899 291.733 657.955 290.32 658.227C288.906 658.499 287.576 658.995 286.329 659.715C285.054 660.451 284.167 661.235 283.668 662.067C283.197 662.883 283.1 663.675 283.377 664.443C283.682 665.227 284.375 665.931 285.456 666.555ZM307.835 685.38C306.034 684.34 304.607 683.26 303.554 682.14C302.528 681.036 301.863 679.9 301.558 678.732C301.281 677.58 301.295 676.388 301.6 675.156L309.955 674.844C309.429 676.716 309.484 678.236 310.122 679.404C310.815 680.572 311.951 681.612 313.53 682.524C314.389 683.02 315.262 683.396 316.149 683.652C317.091 683.908 317.978 684.02 318.81 683.988C319.641 683.956 320.362 683.764 320.971 683.412C321.415 683.156 321.72 682.868 321.886 682.548C322.08 682.212 322.135 681.86 322.052 681.492C321.997 681.108 321.83 680.708 321.553 680.292C321.304 679.86 320.957 679.42 320.514 678.972C320.098 678.508 319.586 678.036 318.976 677.556C317.784 676.452 316.856 675.42 316.191 674.46C315.553 673.484 315.221 672.556 315.193 671.676C315.193 670.78 315.484 669.94 316.066 669.156C316.676 668.388 317.59 667.652 318.81 666.948C320.057 666.228 321.484 665.724 323.091 665.436C324.726 665.132 326.417 665.036 328.163 665.148C329.936 665.276 331.668 665.588 333.359 666.084C335.077 666.596 336.657 667.268 338.098 668.1C339.871 669.124 341.215 670.14 342.13 671.148C343.072 672.14 343.654 673.132 343.876 674.124C344.125 675.132 344.042 676.14 343.627 677.148L335.853 677.076C336.047 676.292 336.061 675.548 335.895 674.844C335.756 674.156 335.41 673.508 334.855 672.9C334.357 672.292 333.691 671.748 332.86 671.268C331.946 670.74 331.031 670.356 330.117 670.116C329.23 669.86 328.371 669.748 327.539 669.78C326.736 669.828 326.015 670.036 325.378 670.404C324.879 670.692 324.56 671.02 324.422 671.388C324.283 671.756 324.297 672.164 324.463 672.612C324.657 673.044 324.976 673.516 325.419 674.028C325.863 674.54 326.403 675.076 327.04 675.636C328.26 676.692 329.23 677.716 329.95 678.708C330.671 679.7 331.1 680.652 331.239 681.564C331.433 682.476 331.28 683.348 330.782 684.18C330.311 684.996 329.479 685.748 328.287 686.436C326.32 687.572 324.172 688.268 321.844 688.524C319.516 688.78 317.147 688.644 314.736 688.116C312.353 687.572 310.052 686.66 307.835 685.38ZM333.353 700.112C331.247 698.896 329.861 697.52 329.196 695.984C328.531 694.448 328.573 692.904 329.321 691.352C330.097 689.816 331.579 688.416 333.769 687.152C335.93 685.904 338.341 685.056 341.002 684.608C343.718 684.16 346.406 684.128 349.066 684.512C351.727 684.896 354.11 685.696 356.216 686.912C358.184 688.048 359.625 689.296 360.539 690.656C361.454 692.016 361.731 693.328 361.371 694.592L354.221 694.976C354.359 694.448 354.346 693.896 354.179 693.32C354.041 692.728 353.75 692.16 353.306 691.616C352.891 691.088 352.322 690.616 351.602 690.2C350.466 689.544 349.177 689.12 347.736 688.928C346.35 688.736 344.937 688.768 343.496 689.024C342.055 689.28 340.725 689.76 339.505 690.464C338.314 691.152 337.496 691.912 337.053 692.744C336.665 693.576 336.623 694.416 336.928 695.264C337.261 696.096 337.981 696.832 339.09 697.472C339.81 697.888 340.586 698.224 341.417 698.48C342.277 698.72 343.191 698.88 344.161 698.96C345.159 699.056 346.184 699.072 347.237 699.008L346.531 703.112C344.397 703.256 342.124 703.064 339.713 702.536C337.33 701.992 335.21 701.184 333.353 700.112ZM346.738 707.36L368.728 694.664L374.423 697.952L367.564 702.152L368.021 700.736C369.49 700.272 371.056 699.992 372.719 699.896C374.409 699.784 376.017 699.864 377.541 700.136C379.093 700.424 380.423 700.888 381.531 701.528C382.003 701.8 382.418 702.088 382.779 702.392C383.139 702.696 383.416 702.968 383.61 703.208L375.546 706.04C375.379 705.752 375.116 705.44 374.756 705.104C374.423 704.752 374.007 704.432 373.509 704.144C372.844 703.76 372.095 703.472 371.264 703.28C370.488 703.088 369.67 703 368.811 703.016C367.98 703.016 367.149 703.112 366.317 703.304C365.513 703.512 364.765 703.816 364.072 704.216L352.682 710.792L346.738 707.36ZM365.464 718.172L387.454 705.476L393.357 708.884L371.367 721.58L365.464 718.172ZM394.895 704.54C393.759 703.884 393.149 703.212 393.066 702.524C392.983 701.836 393.454 701.196 394.479 700.604C395.422 700.06 396.502 699.804 397.722 699.836C398.996 699.868 400.188 700.204 401.297 700.844C402.433 701.5 403.029 702.18 403.084 702.884C403.167 703.572 402.71 704.204 401.712 704.78C400.742 705.34 399.634 705.596 398.387 705.548C397.167 705.516 396.004 705.18 394.895 704.54ZM368.526 730.5L399.661 712.524L405.356 715.812L400.576 718.764L399.869 717.924C400.95 717.524 402.239 717.324 403.735 717.324C405.259 717.34 406.825 717.54 408.433 717.924C410.04 718.308 411.467 718.86 412.714 719.58C414.626 720.684 415.818 721.948 416.289 723.372C416.816 724.796 416.649 726.252 415.79 727.74C414.987 729.228 413.476 730.612 411.259 731.892C409.07 733.156 406.687 734.036 404.109 734.532C401.532 735.028 398.996 735.132 396.502 734.844C394.036 734.54 391.846 733.836 389.934 732.732C388.66 731.996 387.676 731.156 386.983 730.212C386.345 729.268 386.027 728.332 386.027 727.404C386.027 726.476 386.387 725.692 387.108 725.052L389.061 725.508L374.471 733.932L368.526 730.5ZM393.676 729.036C394.756 729.66 395.976 730.06 397.334 730.236C398.692 730.412 400.077 730.364 401.491 730.092C402.932 729.804 404.276 729.3 405.523 728.58C406.77 727.86 407.629 727.092 408.1 726.276C408.571 725.46 408.654 724.66 408.349 723.876C408.072 723.108 407.38 722.404 406.271 721.764C405.162 721.124 403.929 720.716 402.571 720.54C401.241 720.348 399.855 720.396 398.414 720.684C397.001 720.956 395.671 721.452 394.424 722.172C393.177 722.892 392.304 723.668 391.805 724.5C391.334 725.316 391.251 726.116 391.555 726.9C391.86 727.684 392.567 728.396 393.676 729.036ZM406.828 742.053L434.388 726.141L440.291 729.549L412.73 745.461L406.828 742.053ZM419.423 730.029L424.702 726.981L439.21 735.357L433.931 738.405L419.423 730.029Z" fill="white"/>
<rect width="28.8687" height="223.008" transform="matrix(0.866025 -0.5 2.20305e-08 1 732 326.385)" fill="#2E4E85"/>
<rect width="28.5919" height="317.886" transform="matrix(0.866025 -0.5 0.866025 0.5 456.954 167.296)" fill="#5779B5"/>
<rect width="317.851" height="223.286" transform="matrix(0.866025 0.5 -2.20305e-08 1 456.979 167.315)" fill="white"/>
<rect width="269.736" height="167.789" rx="10" transform="matrix(0.866025 0.5 -2.20305e-08 1 477.183 209.597)" fill="#CEDAEF"/>
<rect width="317.851" height="32.9491" transform="matrix(0.866025 0.5 -2.20305e-08 1 260 503.804)" fill="#96AFDB"/>
<rect width="318.042" height="227.285" transform="matrix(0.866025 0.5 -0.866025 0.5 456.834 390.162)" fill="white"/>
<rect width="272.328" height="168.822" rx="10" transform="matrix(0.866025 0.5 -0.866025 0.5 456.712 412.89)" fill="#CEDAEF"/>
<rect width="256.036" height="33.0216" transform="matrix(0.866025 -0.5 2.20305e-08 1 535.267 662.559)" fill="#2E4E85"/>
<rect width="17.985" height="22.1093" rx="5" transform="matrix(0.866025 0.5 -0.866025 0.5 455.153 424.621)" fill="#5779B5"/>
<rect width="17.985" height="22.1093" rx="5" transform="matrix(0.866025 0.5 -0.866025 0.5 475.271 436.237)" fill="#5779B5"/>
<rect width="17.985" height="22.1093" rx="5" transform="matrix(0.866025 0.5 -0.866025 0.5 495.389 447.852)" fill="#5779B5"/>
<rect width="17.985" height="22.1093" rx="5" transform="matrix(0.866025 0.5 -0.866025 0.5 515.507 459.467)" fill="#5779B5"/>
<rect width="17.985" height="22.1093" rx="5" transform="matrix(0.866025 0.5 -0.866025 0.5 535.625 471.083)" fill="#5779B5"/>
<rect width="17.985" height="22.1093" rx="5" transform="matrix(0.866025 0.5 -0.866025 0.5 555.745 482.698)" fill="#5779B5"/>
<rect width="17.985" height="22.1093" rx="5" transform="matrix(0.866025 0.5 -0.866025 0.5 575.863 494.313)" fill="#5779B5"/>
<rect width="17.985" height="22.1093" rx="5" transform="matrix(0.866025 0.5 -0.866025 0.5 595.982 505.929)" fill="#5779B5"/>
<rect width="17.985" height="22.1093" rx="5" transform="matrix(0.866025 0.5 -0.866025 0.5 616.1 517.544)" fill="#5779B5"/>
<rect width="41.2157" height="22.1093" rx="5" transform="matrix(0.866025 0.5 -0.866025 0.5 636.218 529.159)" fill="#5779B5"/>
<rect width="17.985" height="22.1093" rx="5" transform="matrix(0.866025 0.5 -0.866025 0.5 430.422 438.9)" fill="#5779B5"/>
<rect width="17.985" height="22.1093" rx="5" transform="matrix(0.866025 0.5 -0.866025 0.5 450.541 450.516)" fill="#5779B5"/>
<rect width="17.985" height="22.1093" rx="5" transform="matrix(0.866025 0.5 -0.866025 0.5 470.659 462.131)" fill="#5779B5"/>
<rect width="17.985" height="22.1093" rx="5" transform="matrix(0.866025 0.5 -0.866025 0.5 490.777 473.746)" fill="#5779B5"/>
<rect width="17.985" height="22.1093" rx="5" transform="matrix(0.866025 0.5 -0.866025 0.5 510.895 485.362)" fill="#5779B5"/>
<rect width="17.985" height="22.1093" rx="5" transform="matrix(0.866025 0.5 -0.866025 0.5 531.014 496.977)" fill="#5779B5"/>
<rect width="17.985" height="22.1093" rx="5" transform="matrix(0.866025 0.5 -0.866025 0.5 551.132 508.592)" fill="#5779B5"/>
<rect width="17.985" height="22.1093" rx="5" transform="matrix(0.866025 0.5 -0.866025 0.5 571.25 520.208)" fill="#5779B5"/>
<rect width="17.985" height="22.1093" rx="5" transform="matrix(0.866025 0.5 -0.866025 0.5 591.37 531.823)" fill="#5779B5"/>
<rect width="17.985" height="22.1093" rx="5" transform="matrix(0.866025 0.5 -0.866025 0.5 611.487 543.438)" fill="#5779B5"/>
<rect width="17.985" height="22.1093" rx="5" transform="matrix(0.866025 0.5 -0.866025 0.5 631.605 555.054)" fill="#5779B5"/>
<rect width="23.2307" height="22.1093" rx="5" transform="matrix(0.866025 0.5 -0.866025 0.5 441.385 473.787)" fill="#5779B5"/>
<rect width="23.2307" height="22.1093" rx="5" transform="matrix(0.866025 0.5 -0.866025 0.5 566.637 546.102)" fill="#5779B5"/>
<rect width="35.9701" height="22.1093" rx="5" transform="matrix(0.866025 0.5 -0.866025 0.5 405.691 453.179)" fill="#5779B5"/>
<rect width="35.9701" height="22.1093" rx="5" transform="matrix(0.866025 0.5 -0.866025 0.5 591.298 560.34)" fill="#5779B5"/>
<rect width="17.985" height="22.1093" rx="5" transform="matrix(0.866025 0.5 -0.866025 0.5 466.045 488.025)" fill="#5779B5"/>
<rect width="17.985" height="22.1093" rx="5" transform="matrix(0.866025 0.5 -0.866025 0.5 486.164 499.641)" fill="#5779B5"/>
<rect width="17.985" height="22.1093" rx="5" transform="matrix(0.866025 0.5 -0.866025 0.5 506.283 511.256)" fill="#5779B5"/>
<rect width="17.985" height="22.1093" rx="5" transform="matrix(0.866025 0.5 -0.866025 0.5 526.4 522.871)" fill="#5779B5"/>
<rect width="17.985" height="22.1093" rx="5" transform="matrix(0.866025 0.5 -0.866025 0.5 546.519 534.487)" fill="#5779B5"/>
<rect width="74.9377" height="33.164" rx="5" transform="matrix(0.866025 0.5 -0.866025 0.5 432.156 525.576)" fill="#5779B5"/>
<rect width="41.2157" height="22.1093" rx="5" transform="matrix(0.866025 0.5 -0.866025 0.5 380.959 467.458)" fill="#5779B5"/>
<rect width="17.985" height="22.1093" rx="5" transform="matrix(0.866025 0.5 -0.866025 0.5 421.195 490.689)" fill="#5779B5"/>
<rect width="17.985" height="22.1093" rx="5" transform="matrix(0.866025 0.5 -0.866025 0.5 441.313 502.304)" fill="#5779B5"/>
<rect width="17.985" height="22.1093" rx="5" transform="matrix(0.866025 0.5 -0.866025 0.5 461.432 513.919)" fill="#5779B5"/>
<rect width="17.985" height="22.1093" rx="5" transform="matrix(0.866025 0.5 -0.866025 0.5 481.551 525.535)" fill="#5779B5"/>
<rect width="17.985" height="22.1093" rx="5" transform="matrix(0.866025 0.5 -0.866025 0.5 501.668 537.15)" fill="#5779B5"/>
<rect width="17.985" height="22.1093" rx="5" transform="matrix(0.866025 0.5 -0.866025 0.5 521.787 548.765)" fill="#5779B5"/>
<rect width="17.985" height="22.1093" rx="5" transform="matrix(0.866025 0.5 -0.866025 0.5 541.905 560.381)" fill="#5779B5"/>
<rect width="41.2157" height="22.1093" rx="5" transform="matrix(0.866025 0.5 -0.866025 0.5 562.023 571.996)" fill="#5779B5"/>
<path d="M557.717 364.962L558.715 354.93C558.715 354.066 558.521 353.234 558.133 352.434C557.745 351.634 557.121 350.986 556.262 350.49C555.403 349.994 554.669 349.97 554.059 350.418C553.477 350.85 553.048 351.626 552.771 352.746C552.577 354.458 552.286 356.962 551.898 360.258C551.51 363.522 551.26 365.65 551.149 366.642L545.621 363.45C547.616 344.986 548.821 333.634 549.237 329.394C549.819 329.474 550.609 329.802 551.607 330.378C553.768 331.626 554.849 332.986 554.849 334.458L554.849 334.746C554.378 339.498 553.879 343.626 553.352 347.13C554.821 346.442 556.484 346.634 558.341 347.706C560.198 348.778 561.666 350.17 562.747 351.882C563.828 353.594 564.368 355.282 564.368 356.946C564.368 357.394 564.285 358.178 564.119 359.298C563.482 363.73 563.163 366.362 563.163 367.194C563.163 368.698 563.592 369.698 564.451 370.194C565.172 370.61 565.934 370.506 566.738 369.882C567.569 369.242 568.234 367.914 568.733 365.898C569.675 367.594 570.243 368.834 570.437 369.618C568.996 374.354 566.447 375.666 562.789 373.554C561.071 372.562 559.796 371.218 558.964 369.522C558.133 367.826 557.717 366.306 557.717 364.962ZM574.764 369.524C576.482 370.1 577.757 370.036 578.588 369.332C579.447 368.644 579.877 367.756 579.877 366.668C579.877 365.548 579.613 364.644 579.087 363.956C578.588 363.252 578.034 362.724 577.424 362.372C576.121 361.62 574.971 361.804 573.974 362.924C573.004 364.028 572.519 365.748 572.519 368.084C572.519 370.388 572.99 372.388 573.932 374.084C574.902 375.764 576.094 377.012 577.507 377.828C579.586 379.028 581.581 379.348 583.493 378.788C585.405 378.228 586.957 376.948 588.149 374.948C588.759 375.972 589.313 377.124 589.812 378.404C588.897 380.276 587.276 381.692 584.948 382.652C583.784 383.1 582.398 383.212 580.791 382.988C579.211 382.78 577.576 382.188 575.886 381.212C573.115 379.612 570.925 377.372 569.318 374.492C567.6 371.388 566.741 368.188 566.741 364.892C566.741 361.596 567.808 359.332 569.942 358.1C572.103 356.884 574.68 357.14 577.673 358.868C579.807 360.1 581.539 361.644 582.87 363.5C584.2 365.324 584.879 367.156 584.906 368.996C584.906 371.46 584.047 372.964 582.329 373.508C580.639 374.068 578.311 373.796 575.346 372.692L574.764 369.524ZM591.966 390.544C590.275 389.568 588.945 388.256 587.975 386.608C587.005 384.928 586.52 383.128 586.52 381.208C586.52 380.696 587.268 373.528 588.765 359.704C589.153 356.152 590.192 354.368 591.883 354.352C592.659 354.32 593.587 354.616 594.668 355.24C598.326 357.352 600.155 360.36 600.155 364.264C600.155 364.584 600.141 364.912 600.113 365.248C599.836 369.376 597.508 372.4 593.13 374.32C592.991 375.808 592.839 377.24 592.672 378.616C592.34 381.72 592.174 383.448 592.174 383.8C592.174 385.464 592.797 386.656 594.044 387.376C595.402 388.16 596.663 387.992 597.827 386.872C599.019 385.736 599.933 383.944 600.571 381.496C600.82 381.736 601.166 382.208 601.61 382.912C602.053 383.584 602.358 384.128 602.524 384.544C602.081 386.944 601.083 388.912 599.531 390.448C598.755 391.248 597.772 391.704 596.58 391.816C595.222 391.96 593.684 391.536 591.966 390.544ZM593.587 369.784C596.137 368.024 597.411 365.864 597.411 363.304C597.411 361.768 596.912 360.712 595.915 360.136C595.277 359.832 594.848 360.064 594.626 360.832C594.432 361.616 594.238 362.96 594.044 364.864C593.878 366.784 593.767 367.968 593.712 368.416L593.587 369.784ZM604.672 397.88C602.981 396.904 601.651 395.592 600.681 393.944C599.711 392.264 599.226 390.464 599.226 388.544C599.226 388.032 599.975 380.864 601.471 367.04C601.859 363.488 602.898 361.704 604.589 361.688C605.365 361.656 606.293 361.952 607.374 362.576C611.032 364.688 612.861 367.696 612.861 371.6C612.861 371.92 612.847 372.248 612.82 372.584C612.542 376.712 610.215 379.736 605.836 381.656C605.697 383.144 605.545 384.576 605.379 385.952C605.046 389.056 604.88 390.784 604.88 391.136C604.88 392.8 605.503 393.992 606.75 394.712C608.108 395.496 609.369 395.328 610.533 394.208C611.725 393.072 612.639 391.28 613.277 388.832C613.526 389.072 613.873 389.544 614.316 390.248C614.759 390.92 615.064 391.464 615.231 391.88C614.787 394.28 613.789 396.248 612.238 397.784C611.462 398.584 610.478 399.04 609.286 399.152C607.928 399.296 606.39 398.872 604.672 397.88ZM606.293 377.12C608.843 375.36 610.118 373.2 610.118 370.64C610.118 369.104 609.619 368.048 608.621 367.472C607.984 367.168 607.554 367.4 607.332 368.168C607.138 368.952 606.944 370.296 606.75 372.2C606.584 374.12 606.473 375.304 606.418 375.752L606.293 377.12ZM622.699 384.864C625.249 386.336 627.369 388.504 629.059 391.368C630.777 394.248 631.636 397.048 631.636 399.768C631.636 403.896 630.583 406.6 628.477 407.88C626.399 409.144 623.877 408.92 620.912 407.208C617.946 405.496 615.591 403.16 613.845 400.2C612.127 397.256 611.267 394.344 611.267 391.464C611.267 387.432 612.334 384.848 614.468 383.712C616.63 382.56 619.373 382.944 622.699 384.864ZM621.868 388.272C620.565 387.52 619.47 387.752 618.584 388.968C617.697 390.184 617.212 392.08 617.129 394.656C617.129 396.512 617.447 398.232 618.085 399.816C618.75 401.416 619.748 402.6 621.078 403.368C622.408 404.136 623.517 403.928 624.403 402.744C625.318 401.576 625.775 399.904 625.775 397.728C625.775 395.552 625.456 393.64 624.819 391.992C624.182 390.28 623.198 389.04 621.868 388.272Z" fill="url(#paint0_linear_272_5793)"/>
<defs>
<linearGradient id="paint0_linear_272_5793" x1="632.466" y1="364.59" x2="540.138" y2="364.59" gradientUnits="userSpaceOnUse">
<stop stop-color="#FC00FF"/>
<stop offset="1" stop-color="#00DBDE"/>
</linearGradient>
</defs>
</svg>
